{
  "accessors": [
    {
      "bufferView": 2,
      "componentType": 5126,
      "count": 208,
      "max": [
        0.5266515016555786,
        0.02063699997961521,
        1.0499999523162842
      ],
      "min": [
        -0.5266515016555786,
        -0.020637501031160355,
        -1.0499999523162842
      ],
      "type": "VEC3"
    },
    {
      "bufferView": 2,
      "byteOffset": 2496,
      "componentType": 5126,
      "count": 208,
      "max": [
        1.0,
        1.0,
        1.0
      ],
      "min": [
        -1.0,
        -1.0,
        -1.0
      ],
      "type": "VEC3"
    },
    {
      "bufferView": 3,
      "componentType": 5126,
      "count": 208,
      "max": [
        1.0,
        1.0,
        0.9972321391105652,
        1.0
      ],
      "min": [
        -1.0,
        -1.0,
        -0.981263279914856,
        1.0
      ],
      "type": "VEC4"
    },
    {
      "bufferView": 1,
      "componentType": 5126,
      "count": 208,
      "max": [
        0.9975948333740234,
        0.9927961230278015
      ],
      "min": [
        0.0,
        0.0
      ],
      "type": "VEC2"
    },
    {
      "bufferView": 0,
      "componentType": 5125,
      "count": 288,
      "type": "SCALAR"
    },
    {
      "bufferView": 2,
      "byteOffset": 4992,
      "componentType": 5126,
      "count": 208,
      "max": [
        0.3520357608795166,
        0.030814940109848976,
        0.7621440291404724
      ],
      "min": [
        -0.0763683170080185,
        -0.030815687030553818,
        -0.2800733745098114
      ],
      "type": "VEC3"
    },
    {
      "bufferView": 2,
      "byteOffset": 7488,
      "componentType": 5126,
      "count": 208,
      "max": [
        1.0,
        1.0,
        1.0
      ],
      "min": [
        -1.0,
        -1.0,
        -1.0
      ],
      "type": "VEC3"
    },
    {
      "bufferView": 3,
      "byteOffset": 3328,
      "componentType": 5126,
      "count": 208,
      "max": [
        0.8616363406181335,
        1.0,
        0.9849795699119568,
        1.0
      ],
      "min": [
        -1.0,
        -1.0,
        -0.9849796891212463,
        1.0
      ],
      "type": "VEC4"
    },
    {
      "bufferView": 1,
      "byteOffset": 1664,
      "componentType": 5126,
      "count": 208,
      "max": [
        0.9966697096824646,
        0.9969175457954407
      ],
      "min": [
        0.0,
        0.40480589866638184
      ],
      "type": "VEC2"
    },
    {
      "bufferView": 0,
      "byteOffset": 1152,
      "componentType": 5125,
      "count": 288,
      "type": "SCALAR"
    },
    {
      "bufferView": 2,
      "byteOffset": 9984,
      "componentType": 5126,
      "count": 24,
      "max": [
        0.33082255721092224,
        0.009481365792453289,
        0.7409307360649109
      ],
      "min": [
        -0.055155105888843536,
        -3.754725241833512e-07,
        -0.25886011123657227
      ],
      "type": "VEC3"
    },
    {
      "bufferView": 2,
      "byteOffset": 10272,
      "componentType": 5126,
      "count": 24,
      "max": [
        1.0,
        1.0,
        1.0
      ],
      "min": [
        -1.0,
        -1.0,
        -1.0
      ],
      "type": "VEC3"
    },
    {
      "bufferView": 3,
      "byteOffset": 6656,
      "componentType": 5126,
      "count": 24,
      "max": [
        1.0,
        1.0,
        0.011330805718898773,
        1.0
      ],
      "min": [
        -1.0,
        -1.0,
        -9.91072624856315e-07,
        1.0
      ],
      "type": "VEC4"
    },
    {
      "bufferView": 1,
      "byteOffset": 3328,
      "componentType": 5126,
      "count": 24,
      "max": [
        0.955041766166687,
        0.9743310213088989
      ],
      "min": [
        0.2636445164680481,
        0.6528945565223694
      ],
      "type": "VEC2"
    },
    {
      "bufferView": 0,
      "byteOffset": 2304,
      "componentType": 5125,
      "count": 36,
      "type": "SCALAR"
    },
    {
      "bufferView": 2,
      "byteOffset": 10560,
      "componentType": 5126,
      "count": 96,
      "max": [
        0.09200716018676758,
        0.20204433798789978,
        -0.016340676695108414
      ],
      "min": [
        -0.09200716018676758,
        -0.20204433798789978,
        -0.03856555372476578
      ],
      "type": "VEC3"
    },
    {
      "bufferView": 2,
      "byteOffset": 11712,
      "componentType": 5126,
      "count": 96,
      "max": [
        1.0,
        1.0,
        1.0
      ],
      "min": [
        -1.0,
        -1.0,
        -1.0
      ],
      "type": "VEC3"
    },
    {
      "bufferView": 3,
      "byteOffset": 7040,
      "componentType": 5126,
      "count": 96,
      "max": [
        1.0,
        0.8165076375007629,
        1.0,
        1.0
      ],
      "min": [
        -0.8013655543327332,
        -0.7916664481163025,
        -1.0,
        1.0
      ],
      "type": "VEC4"
    },
    {
      "bufferView": 1,
      "byteOffset": 3520,
      "componentType": 5126,
      "count": 96,
      "max": [
        0.8106403946876526,
        0.9421218633651733
      ],
      "min": [
        0.5042607188224792,
        0.6528943181037903
      ],
      "type": "VEC2"
    },
    {
      "bufferView": 0,
      "byteOffset": 2448,
      "componentType": 5125,
      "count": 132,
      "type": "SCALAR"
    },
    {
      "bufferView": 2,
      "byteOffset": 12864,
      "componentType": 5126,
      "count": 526,
      "max": [
        0.0714598000049591,
        0.043134965002536774,
        0.13046576082706451
      ],
      "min": [
        -0.0714598000049591,
        -0.039159100502729416,
        -0.12529288232326508
      ],
      "type": "VEC3"
    },
    {
      "bufferView": 2,
      "byteOffset": 19176,
      "componentType": 5126,
      "count": 526,
      "max": [
        1.0,
        1.0,
        1.0
      ],
      "min": [
        -1.0,
        -1.0,
        -1.0
      ],
      "type": "VEC3"
    },
    {
      "bufferView": 3,
      "byteOffset": 8576,
      "componentType": 5126,
      "count": 526,
      "max": [
        1.0,
        1.0,
        1.0,
        1.0
      ],
      "min": [
        -0.9998412132263184,
        -1.0,
        -1.0,
        1.0
      ],
      "type": "VEC4"
    },
    {
      "bufferView": 1,
      "byteOffset": 4288,
      "componentType": 5126,
      "count": 526,
      "max": [
        0.8858137726783752,
        0.9229481220245361
      ],
      "min": [
        0.5043785572052002,
        0.6528943777084351
      ],
      "type": "VEC2"
    },
    {
      "bufferView": 0,
      "byteOffset": 2976,
      "componentType": 5125,
      "count": 744,
      "type": "SCALAR"
    },
    {
      "bufferView": 2,
      "byteOffset": 25488,
      "componentType": 5126,
      "count": 192,
      "max": [
        0.013519677333533764,
        0.03317427635192871,
        0.08383587747812271
      ],
      "min": [
        -0.013519677333533764,
        -0.03317427635192871,
        -0.08110419660806656
      ],
      "type": "VEC3"
    },
    {
      "bufferView": 2,
      "byteOffset": 27792,
      "componentType": 5126,
      "count": 192,
      "max": [
        1.0,
        1.0,
        0.995429515838623
      ],
      "min": [
        -1.0,
        -0.9783827066421509,
        -0.9954294562339783
      ],
      "type": "VEC3"
    },
    {
      "bufferView": 3,
      "byteOffset": 16992,
      "componentType": 5126,
      "count": 192,
      "max": [
        1.0,
        1.0,
        0.8292909264564514,
        1.0
      ],
      "min": [
        -0.8103545308113098,
        -1.0,
        -0.8263455033302307,
        1.0
      ],
      "type": "VEC4"
    },
    {
      "bufferView": 1,
      "byteOffset": 8496,
      "componentType": 5126,
      "count": 192,
      "max": [
        0.8702741861343384,
        0.9356420636177063
      ],
      "min": [
        0.5043785572052002,
        0.758409857749939
      ],
      "type": "VEC2"
    },
    {
      "bufferView": 0,
      "byteOffset": 5952,
      "componentType": 5125,
      "count": 408,
      "type": "SCALAR"
    },
    {
      "bufferView": 2,
      "byteOffset": 30096,
      "componentType": 5126,
      "count": 200,
      "max": [
        0.5407936573028564,
        0.0266425758600235,
        1.064142107963562
      ],
      "min": [
        -0.5407936573028564,
        -0.026643220335245132,
        -1.064142107963562
      ],
      "type": "VEC3"
    },
    {
      "bufferView": 2,
      "byteOffset": 32496,
      "componentType": 5126,
      "count": 200,
      "max": [
        1.0,
        1.0,
        1.0
      ],
      "min": [
        -1.0,
        -1.0,
        -1.0
      ],
      "type": "VEC3"
    },
    {
      "bufferView": 3,
      "byteOffset": 20064,
      "componentType": 5126,
      "count": 200,
      "max": [
        0.9999293088912964,
        1.0,
        0.9950189590454102,
        1.0
      ],
      "min": [
        -0.9749401211738586,
        -1.0,
        -0.9950189590454102,
        1.0
      ],
      "type": "VEC4"
    },
    {
      "bufferView": 1,
      "byteOffset": 10032,
      "componentType": 5126,
      "count": 200,
      "max": [
        1.0,
        0.9883685111999512
      ],
      "min": [
        0.545998215675354,
        0.0
      ],
      "type": "VEC2"
    },
    {
      "bufferView": 0,
      "byteOffset": 7584,
      "componentType": 5125,
      "count": 288,
      "type": "SCALAR"
    }
  ],
  "asset": {
    "extras": {
      "author": "sgoldcreatives (https://sketchfab.com/sgoldcreatives)",
      "license": "CC-BY-4.0 (http://creativecommons.org/licenses/by/4.0/)",
      "source": "https://sketchfab.com/3d-models/science-lab-door-apocalyptic-9526f161c4c441c480209213d6cfb55c",
      "title": "Science Lab Door - Apocalyptic"
    },
    "generator": "Sketchfab-14.60.0",
    "version": "2.0"
  },
  "bufferViews": [
    {
      "buffer": 0,
      "byteLength": 8736,
      "name": "floatBufferViews",
      "target": 34963
    },
    {
      "buffer": 0,
      "byteLength": 11632,
      "byteOffset": 8736,
      "byteStride": 8,
      "name": "floatBufferViews",
      "target": 34962
    },
    {
      "buffer": 0,
      "byteLength": 34896,
      "byteOffset": 20368,
      "byteStride": 12,
      "name": "floatBufferViews",
      "target": 34962
    },
    {
      "buffer": 0,
      "byteLength": 23264,
      "byteOffset": 55264,
      "byteStride": 16,
      "name": "floatBufferViews",
      "target": 34962
    }
  ],
  "buffers": [
    {
      "byteLength": 78528,
      "uri": "scene.bin"
    }
  ],
  "extensionsUsed": [
    "KHR_materials_emissive_strength"
  ],
  "images": [
    {
      "uri": "textures/Door_baseColor.png"
    },
    {
      "uri": "textures/Door_metallicRoughness.png"
    },
    {
      "uri": "textures/Door_normal.png"
    },
    {
      "uri": "textures/glassBorder_baseColor.png"
    },
    {
      "uri": "textures/glassBorder_metallicRoughness.png"
    },
    {
      "uri": "textures/glassBorder_normal.png"
    },
    {
      "uri": "textures/glass_baseColor.png"
    },
    {
      "uri": "textures/glass_metallicRoughness.png"
    },
    {
      "uri": "textures/glass_normal.png"
    },
    {
      "uri": "textures/handleBase_baseColor.png"
    },
    {
      "uri": "textures/handleBase_metallicRoughness.png"
    },
    {
      "uri": "textures/handleBase_normal.png"
    },
    {
      "uri": "textures/keyPad_baseColor.png"
    },
    {
      "uri": "textures/keyPad_metallicRoughness.png"
    },
    {
      "uri": "textures/keyPad_emissive.png"
    },
    {
      "uri": "textures/keyPad_normal.png"
    },
    {
      "uri": "textures/cardSwipe_baseColor.png"
    },
    {
      "uri": "textures/cardSwipe_metallicRoughness.png"
    },
    {
      "uri": "textures/cardSwipe_normal.png"
    },
    {
      "uri": "textures/doorFrame_baseColor.png"
    },
    {
      "uri": "textures/doorFrame_metallicRoughness.png"
    },
    {
      "uri": "textures/doorFrame_normal.png"
    }
  ],
  "materials": [
    {
      "doubleSided": true,
      "name": "Door",
      "normalTexture": {
        "index": 2
      },
      "pbrMetallicRoughness": {
        "baseColorTexture": {
          "index": 0
        },
        "metallicRoughnessTexture": {
          "index": 1
        }
      }
    },
    {
      "doubleSided": true,
      "name": "glassBorder",
      "normalTexture": {
        "index": 5
      },
      "pbrMetallicRoughness": {
        "baseColorTexture": {
          "index": 3
        },
        "metallicRoughnessTexture": {
          "index": 4
        }
      }
    },
    {
      "alphaMode": "BLEND",
      "doubleSided": true,
      "name": "glass",
      "normalTexture": {
        "index": 8
      },
      "pbrMetallicRoughness": {
        "baseColorTexture": {
          "index": 6
        },
        "metallicRoughnessTexture": {
          "index": 7
        }
      }
    },
    {
      "doubleSided": true,
      "name": "handleBase",
      "normalTexture": {
        "index": 11
      },
      "pbrMetallicRoughness": {
        "baseColorTexture": {
          "index": 9
        },
        "metallicRoughnessTexture": {
          "index": 10
        }
      }
    },
    {
      "doubleSided": true,
      "emissiveFactor": [
        1.0,
        1.0,
        1.0
      ],
      "emissiveTexture": {
        "index": 14
      },
      "extensions": {
        "KHR_materials_emissive_strength": {
          "emissiveStrength": 6.019065962867696
        }
      },
      "name": "keyPad",
      "normalTexture": {
        "index": 15
      },
      "pbrMetallicRoughness": {
        "baseColorTexture": {
          "index": 12
        },
        "metallicRoughnessTexture": {
          "index": 13
        }
      }
    },
    {
      "doubleSided": true,
      "name": "cardSwipe",
      "normalTexture": {
        "index": 18
      },
      "pbrMetallicRoughness": {
        "baseColorTexture": {
          "index": 16
        },
        "metallicRoughnessTexture": {
          "index": 17
        }
      }
    },
    {
      "doubleSided": true,
      "name": "doorFrame",
      "normalTexture": {
        "index": 21
      },
      "pbrMetallicRoughness": {
        "baseColorTexture": {
          "index": 19
        },
        "metallicRoughnessTexture": {
          "index": 20
        }
      }
    }
  ],
  "meshes": [
    {
      "name": "Cube_Door_0",
      "primitives": [
        {
          "attributes": {
            "NORMAL": 1,
            "POSITION": 0,
            "TANGENT": 2,
            "TEXCOORD_0": 3
          },
          "indices": 4,
          "material": 0,
          "mode": 4
        }
      ]
    },
    {
      "name": "Cube.001_glassBorder_0",
      "primitives": [
        {
          "attributes": {
            "NORMAL": 6,
            "POSITION": 5,
            "TANGENT": 7,
            "TEXCOORD_0": 8
          },
          "indices": 9,
          "material": 1,
          "mode": 4
        }
      ]
    },
    {
      "name": "Cube.002_glass_0",
      "primitives": [
        {
          "attributes": {
            "NORMAL": 11,
            "POSITION": 10,
            "TANGENT": 12,
            "TEXCOORD_0": 13
          },
          "indices": 14,
          "material": 2,
          "mode": 4
        }
      ]
    },
    {
      "name": "Plane_handleBase_0",
      "primitives": [
        {
          "attributes": {
            "NORMAL": 16,
            "POSITION": 15,
            "TANGENT": 17,
            "TEXCOORD_0": 18
          },
          "indices": 19,
          "material": 3,
          "mode": 4
        }
      ]
    },
    {
      "name": "Cube.003_keyPad_0",
      "primitives": [
        {
          "attributes": {
            "NORMAL": 21,
            "POSITION": 20,
            "TANGENT": 22,
            "TEXCOORD_0": 23
          },
          "indices": 24,
          "material": 4,
          "mode": 4
        }
      ]
    },
    {
      "name": "Cube.004_cardSwipe_0",
      "primitives": [
        {
          "attributes": {
            "NORMAL": 26,
            "POSITION": 25,
            "TANGENT": 27,
            "TEXCOORD_0": 28
          },
          "indices": 29,
          "material": 5,
          "mode": 4
        }
      ]
    },
    {
      "name": "Cube.005_doorFrame_0",
      "primitives": [
        {
          "attributes": {
            "NORMAL": 31,
            "POSITION": 30,
            "TANGENT": 32,
            "TEXCOORD_0": 33
          },
          "indices": 34,
          "material": 6,
          "mode": 4
        }
      ]
    }
  ],
  "nodes": [
    {
      "children": [
        1
      ],
      "matrix": [
        1.0,
        0.0,
        0.0,
        0.0,
        0.0,
        2.220446049250313e-16,
        -1.0,
        0.0,
        0.0,
        1.0,
        2.220446049250313e-16,
        0.0,
        0.0,
        0.0,
        0.0,
        1.0
      ],
      "name": "Sketchfab_model"
    },
    {
      "children": [
        2
      ],
      "matrix": [
        0.009999999776482582,
        0.0,
        0.0,
        0.0,
        0.0,
        0.0,
        0.009999999776482582,
        0.0,
        0.0,
        -0.009999999776482582,
        0.0,
        0.0,
        0.0,
        0.0,
        0.0,
        1.0
      ],
      "name": "bff3c3fd00694b69977d588936d42542.fbx"
    },
    {
      "children": [
        3,
        5,
        7,
        9,
        11,
        13,
        15
      ],
      "name": "RootNode"
    },
    {
      "children": [
        4
      ],
      "matrix": [
        100.0,
        0.0,
        0.0,
        0.0,
        0.0,
        -1.629206793918314e-05,
        -99.99999999999868,
        0.0,
        0.0,
        99.99999999999868,
        -1.629206793918314e-05,
        0.0,
        0.0,
        0.0,
        0.0,
        1.0
      ],
      "name": "Cube"
    },
    {
      "mesh": 0,
      "name": "Cube_Door_0"
    },
    {
      "children": [
        6
      ],
      "matrix": [
        100.0,
        0.0,
        0.0,
        0.0,
        0.0,
        -1.629206793918314e-05,
        -99.99999999999868,
        0.0,
        0.0,
        99.99999999999868,
        -1.629206793918314e-05,
        0.0,
        0.0,
        0.0,
        0.0,
        1.0
      ],
      "name": "Cube.001"
    },
    {
      "mesh": 1,
      "name": "Cube.001_glassBorder_0"
    },
    {
      "children": [
        8
      ],
      "matrix": [
        100.0,
        0.0,
        0.0,
        0.0,
        0.0,
        -1.629206793918314e-05,
        -99.99999999999868,
        0.0,
        0.0,
        99.99999999999868,
        -1.629206793918314e-05,
        0.0,
        0.0,
        0.0,
        -0.15008412301540375,
        1.0
      ],
      "name": "Cube.002"
    },
    {
      "mesh": 2,
      "name": "Cube.002_glass_0"
    },
    {
      "children": [
        10
      ],
      "matrix": [
        100.0,
        0.0,
        0.0,
        0.0,
        0.0,
        99.9999999999999,
        4.371138828673792e-06,
        0.0,
        0.0,
        -4.371138828673792e-06,
        99.9999999999999,
        0.0,
        -40.38059997558594,
        8.808560371398926,
        4.255776405334473,
        1.0
      ],
      "name": "Plane"
    },
    {
      "mesh": 3,
      "name": "Plane_handleBase_0"
    },
    {
      "children": [
        12
      ],
      "matrix": [
        100.0,
        0.0,
        0.0,
        0.0,
        -0.0,
        -1.629206793918314e-05,
        -99.99999999999868,
        0.0,
        0.0,
        99.99999999999868,
        -1.629206793918314e-05,
        0.0,
        -41.67124557495117,
        15.772384643554688,
        4.661472320556641,
        1.0
      ],
      "name": "Cube.003"
    },
    {
      "mesh": 4,
      "name": "Cube.003_keyPad_0"
    },
    {
      "children": [
        14
      ],
      "matrix": [
        100.0,
        0.0,
        0.0,
        0.0,
        -0.0,
        -1.629206793918314e-05,
        -99.99999999999868,
        0.0,
        0.0,
        99.99999999999868,
        -1.629206793918314e-05,
        0.0,
        -33.231040954589844,
        18.601268768310547,
        3.715695858001709,
        1.0
      ],
      "name": "Cube.004"
    },
    {
      "mesh": 5,
      "name": "Cube.004_cardSwipe_0"
    },
    {
      "children": [
        16
      ],
      "matrix": [
        100.0,
        0.0,
        0.0,
        0.0,
        0.0,
        -1.629206793918314e-05,
        -99.99999999999868,
        0.0,
        0.0,
        99.99999999999868,
        -1.629206793918314e-05,
        0.0,
        0.0,
        0.0,
        0.0,
        1.0
      ],
      "name": "Cube.005"
    },
    {
      "mesh": 6,
      "name": "Cube.005_doorFrame_0"
    }
  ],
  "samplers": [
    {
      "magFilter": 9729,
      "minFilter": 9987,
      "wrapS": 10497,
      "wrapT": 10497
    }
  ],
  "scene": 0,
  "scenes": [
    {
      "name": "Sketchfab_Scene",
      "nodes": [
        0
      ]
    }
  ],
  "textures": [
    {
      "sampler": 0,
      "source": 0
    },
    {
      "sampler": 0,
      "source": 1
    },
    {
      "sampler": 0,
      "source": 2
    },
    {
      "sampler": 0,
      "source": 3
    },
    {
      "sampler": 0,
      "source": 4
    },
    {
      "sampler": 0,
      "source": 5
    },
    {
      "sampler": 0,
      "source": 6
    },
    {
      "sampler": 0,
      "source": 7
    },
    {
      "sampler": 0,
      "source": 8
    },
    {
      "sampler": 0,
      "source": 9
    },
    {
      "sampler": 0,
      "source": 10
    },
    {
      "sampler": 0,
      "source": 11
    },
    {
      "sampler": 0,
      "source": 12
    },
    {
      "sampler": 0,
      "source": 13
    },
    {
      "sampler": 0,
      "source": 14
    },
    {
      "sampler": 0,
      "source": 15
    },
    {
      "sampler": 0,
      "source": 16
    },
    {
      "sampler": 0,
      "source": 17
    },
    {
      "sampler": 0,
      "source": 18
    },
    {
      "sampler": 0,
      "source": 19
    },
    {
      "sampler": 0,
      "source": 20
    },
    {
      "sampler": 0,
      "source": 21
    }
  ]
}
